<svg width="32" height="32" viewBox="0 0 32 32" fill="none" xmlns="http://www.w3.org/2000/svg">
  <rect width="32" height="32" rx="8" fill="#0ea5e9"/>
  <path d="M8 12c0-2.21 1.79-4 4-4h8c2.21 0 4 1.79 4 4v8c0 2.21-1.79 4-4 4h-8c-2.21 0-4-1.79-4-4v-8z" fill="white"/>
  <path d="M12 14c0-1.1.9-2 2-2s2 .9 2 2-.9 2-2 2-2-.9-2-2z" fill="#0ea5e9"/>
  <path d="M18 14c0-1.1.9-2 2-2s2 .9 2 2-.9 2-2 2-2-.9-2-2z" fill="#0ea5e9"/>
  <path d="M12 18h8c0 2.21-1.79 4-4 4s-4-1.79-4-4z" fill="#0ea5e9"/>
</svg>
